<?xml version="1.0" encoding="iso-8859-1"?>
<!DOCTYPE svg PUBLIC "-//W3C//DTD SVG 1.1//EN" "http://www.w3.org/Graphics/SVG/1.1/DTD/svg11.dtd">
<svg version="1.1" id="Capa_1" xmlns="http://www.w3.org/2000/svg" xmlns:xlink="http://www.w3.org/1999/xlink" x="0px" y="0px"
	 width="502.947px" height="502.947px" viewBox="0 0 502.947 502.947"
	 xml:space="preserve">
	<path d="M502.947,240.072h-62.513c-5.709-94.948-82.112-171.134-177.163-176.466V0H241.96v63.606
		c-95.04,5.332-171.448,81.524-177.149,176.466H0v21.314h64.69c4.98,95.637,81.716,172.595,177.27,177.956v63.605h21.311v-63.605
		c95.548-5.361,172.287-82.319,177.27-177.956h62.406V240.072z M419.073,240.072h-56.176c-5.06-52.452-47.079-94.2-99.626-98.931
		V84.961C346.566,90.237,413.429,156.878,419.073,240.072z M253.362,339.497c-48.947,0-88.768-39.827-88.768-88.769
		c0-48.953,39.821-88.779,88.768-88.779c48.95,0,88.776,39.827,88.776,88.779C342.139,299.67,302.312,339.497,253.362,339.497z
		 M241.966,84.961v56.282c-51.855,5.349-93.127,46.873-98.139,98.828H86.165C91.812,156.878,158.675,90.237,241.966,84.961z
		 M86.049,261.386h57.778c5.012,51.956,46.278,93.461,98.139,98.822v57.778C158.172,412.672,90.994,345.277,86.049,261.386z
		 M263.271,417.986v-57.678c52.547-4.723,94.566-46.482,99.626-98.923h56.288C414.25,345.277,347.068,412.672,263.271,417.986z"/>
</svg>
